<svg width="25" height="67" viewBox="0 0 25 67" fill="none" xmlns="http://www.w3.org/2000/svg">
<path fill-rule="evenodd" clip-rule="evenodd" d="M0 54.3542C0 47.4512 5.597 41.8542 12.5 41.8542C19.403 41.8542 25 47.4512 25 54.3542C25 61.2572 19.403 66.8542 12.5 66.8542C5.597 66.8542 0 61.2572 0 54.3542ZM21 54.3542C21 49.6672 17.187 45.8542 12.5 45.8542C7.813 45.8542 4 49.6672 4 54.3542C4 59.0412 7.813 62.8542 12.5 62.8542C17.187 62.8542 21 59.0412 21 54.3542Z" fill="#C5C5C5"/>
<path fill-rule="evenodd" clip-rule="evenodd" d="M0 13.3542C0 6.45125 5.597 0.854248 12.5 0.854248C19.403 0.854248 25 6.45125 25 13.3542C25 20.2572 19.403 25.8542 12.5 25.8542C5.597 25.8542 0 20.2572 0 13.3542ZM21 13.3542C21 8.66725 17.187 4.85425 12.5 4.85425C7.813 4.85425 4 8.66725 4 13.3542C4 18.0412 7.813 21.8542 12.5 21.8542C17.187 21.8542 21 18.0412 21 13.3542Z" fill="#C5C5C5"/>
<path d="M12.5 17.8542C14.9853 17.8542 17 15.8395 17 13.3542C17 10.869 14.9853 8.85425 12.5 8.85425C10.0147 8.85425 8 10.869 8 13.3542C8 15.8395 10.0147 17.8542 12.5 17.8542Z" fill="#C5C5C5"/>
</svg>
