<svg width="27" height="62" viewBox="0 0 27 62" fill="none" xmlns="http://www.w3.org/2000/svg">
<path d="M7.285 7.486L4.456 10.315L12.239 18.098L26.171 4.166L23.343 1.337L12.239 12.439L7.285 7.486Z" fill="#C5C5C5"/>
<path d="M21 20C21 20.542 20.542 21 20 21H3C2.458 21 2 20.542 2 20V3C2 2.458 2.458 2 3 2H19.908L21.493 0.415C21.041 0.146542 20.5257 0.00329969 20 0H3C1.35 0 0 1.35 0 3V20C0 21.65 1.35 23 3 23H20C21.65 23 23 21.65 23 20V10.171L21 12.171V20Z" fill="#C5C5C5"/>
<path fill-rule="evenodd" clip-rule="evenodd" d="M3 39H20C21.65 39 23 40.35 23 42V59C23 60.65 21.65 62 20 62H3C1.35 62 0 60.65 0 59V42C0 40.35 1.35 39 3 39ZM21 42C21 41.458 20.542 41 20 41H3C2.458 41 2 41.458 2 42V59C2 59.542 2.458 60 3 60H20C20.542 60 21 59.542 21 59V42Z" fill="#C5C5C5"/>
</svg>
